<mxfile host="Electron" modified="2024-09-16T06:38:26.898Z" agent="Mozilla/5.0 (Windows NT 10.0; Win64; x64) AppleWebKit/537.36 (KHTML, like Gecko) draw.io/22.0.3 Chrome/114.0.5735.289 Electron/25.8.4 Safari/537.36" etag="GC8aRBsBd-gMJnUF0F8l" version="22.0.3" type="device">
  <diagram name="Page-1" id="6yBUUnbg-PDMu4ZHLjGv">
    <mxGraphModel dx="968" dy="639" grid="1" gridSize="10" guides="1" tooltips="1" connect="1" arrows="1" fold="1" page="1" pageScale="1" pageWidth="700" pageHeight="320" math="0" shadow="0">
      <root>
        <mxCell id="0" />
        <mxCell id="1" parent="0" />
        <mxCell id="cc5k0PS24h02uIffgmt7-1" value="Physique" style="rounded=0;whiteSpace=wrap;html=1;" vertex="1" parent="1">
          <mxGeometry x="200" y="284" width="170" height="30" as="geometry" />
        </mxCell>
        <mxCell id="cc5k0PS24h02uIffgmt7-2" value="Liaison" style="rounded=0;whiteSpace=wrap;html=1;" vertex="1" parent="1">
          <mxGeometry x="200" y="244" width="170" height="30" as="geometry" />
        </mxCell>
        <mxCell id="cc5k0PS24h02uIffgmt7-3" value="Réseau" style="rounded=0;whiteSpace=wrap;html=1;" vertex="1" parent="1">
          <mxGeometry x="200" y="204" width="170" height="30" as="geometry" />
        </mxCell>
        <mxCell id="cc5k0PS24h02uIffgmt7-4" value="Transport" style="rounded=0;whiteSpace=wrap;html=1;" vertex="1" parent="1">
          <mxGeometry x="200" y="164" width="170" height="30" as="geometry" />
        </mxCell>
        <mxCell id="cc5k0PS24h02uIffgmt7-5" value="Session" style="rounded=0;whiteSpace=wrap;html=1;" vertex="1" parent="1">
          <mxGeometry x="200" y="124" width="170" height="30" as="geometry" />
        </mxCell>
        <mxCell id="cc5k0PS24h02uIffgmt7-6" value="Présentation" style="rounded=0;whiteSpace=wrap;html=1;" vertex="1" parent="1">
          <mxGeometry x="200" y="84" width="170" height="30" as="geometry" />
        </mxCell>
        <mxCell id="cc5k0PS24h02uIffgmt7-7" value="Application" style="rounded=0;whiteSpace=wrap;html=1;" vertex="1" parent="1">
          <mxGeometry x="200" y="44" width="170" height="30" as="geometry" />
        </mxCell>
        <mxCell id="cc5k0PS24h02uIffgmt7-8" value="Bit" style="rounded=1;whiteSpace=wrap;html=1;arcSize=30;" vertex="1" parent="1">
          <mxGeometry x="130" y="284" width="60" height="30" as="geometry" />
        </mxCell>
        <mxCell id="cc5k0PS24h02uIffgmt7-10" value="Trame" style="rounded=1;whiteSpace=wrap;html=1;arcSize=30;" vertex="1" parent="1">
          <mxGeometry x="130" y="244" width="60" height="30" as="geometry" />
        </mxCell>
        <mxCell id="cc5k0PS24h02uIffgmt7-11" value="Paquet" style="rounded=1;whiteSpace=wrap;html=1;arcSize=30;" vertex="1" parent="1">
          <mxGeometry x="130" y="204" width="60" height="30" as="geometry" />
        </mxCell>
        <mxCell id="cc5k0PS24h02uIffgmt7-12" value="Segment" style="rounded=1;whiteSpace=wrap;html=1;arcSize=30;" vertex="1" parent="1">
          <mxGeometry x="130" y="164" width="60" height="30" as="geometry" />
        </mxCell>
        <mxCell id="cc5k0PS24h02uIffgmt7-13" value="Donnée" style="rounded=1;whiteSpace=wrap;html=1;arcSize=17;" vertex="1" parent="1">
          <mxGeometry x="130" y="44" width="60" height="110" as="geometry" />
        </mxCell>
        <mxCell id="cc5k0PS24h02uIffgmt7-14" value="PDU" style="text;strokeColor=none;align=center;fillColor=none;html=1;verticalAlign=middle;whiteSpace=wrap;rounded=0;" vertex="1" parent="1">
          <mxGeometry x="130" y="7" width="60" height="30" as="geometry" />
        </mxCell>
        <mxCell id="cc5k0PS24h02uIffgmt7-15" value="Modèle OSI" style="text;strokeColor=none;align=center;fillColor=none;html=1;verticalAlign=middle;whiteSpace=wrap;rounded=0;" vertex="1" parent="1">
          <mxGeometry x="250" y="7" width="80" height="30" as="geometry" />
        </mxCell>
        <mxCell id="cc5k0PS24h02uIffgmt7-16" value="1" style="rounded=0;whiteSpace=wrap;html=1;" vertex="1" parent="1">
          <mxGeometry x="200" y="284" width="30" height="30" as="geometry" />
        </mxCell>
        <mxCell id="cc5k0PS24h02uIffgmt7-18" value="2" style="rounded=0;whiteSpace=wrap;html=1;" vertex="1" parent="1">
          <mxGeometry x="200" y="244" width="30" height="30" as="geometry" />
        </mxCell>
        <mxCell id="cc5k0PS24h02uIffgmt7-19" value="3" style="rounded=0;whiteSpace=wrap;html=1;" vertex="1" parent="1">
          <mxGeometry x="200" y="204" width="30" height="30" as="geometry" />
        </mxCell>
        <mxCell id="cc5k0PS24h02uIffgmt7-20" value="4" style="rounded=0;whiteSpace=wrap;html=1;" vertex="1" parent="1">
          <mxGeometry x="200" y="164" width="30" height="30" as="geometry" />
        </mxCell>
        <mxCell id="cc5k0PS24h02uIffgmt7-21" value="5" style="rounded=0;whiteSpace=wrap;html=1;" vertex="1" parent="1">
          <mxGeometry x="200" y="124" width="30" height="30" as="geometry" />
        </mxCell>
        <mxCell id="cc5k0PS24h02uIffgmt7-22" value="6" style="rounded=0;whiteSpace=wrap;html=1;" vertex="1" parent="1">
          <mxGeometry x="200" y="84" width="30" height="30" as="geometry" />
        </mxCell>
        <mxCell id="cc5k0PS24h02uIffgmt7-23" value="7" style="rounded=0;whiteSpace=wrap;html=1;" vertex="1" parent="1">
          <mxGeometry x="200" y="44" width="30" height="30" as="geometry" />
        </mxCell>
        <mxCell id="cc5k0PS24h02uIffgmt7-24" value="Accès réseau" style="rounded=0;whiteSpace=wrap;html=1;" vertex="1" parent="1">
          <mxGeometry x="380" y="244" width="170" height="70" as="geometry" />
        </mxCell>
        <mxCell id="cc5k0PS24h02uIffgmt7-25" value="1" style="rounded=0;whiteSpace=wrap;html=1;" vertex="1" parent="1">
          <mxGeometry x="380" y="244" width="30" height="70" as="geometry" />
        </mxCell>
        <mxCell id="cc5k0PS24h02uIffgmt7-26" value="Internet" style="rounded=0;whiteSpace=wrap;html=1;" vertex="1" parent="1">
          <mxGeometry x="380" y="204" width="170" height="30" as="geometry" />
        </mxCell>
        <mxCell id="cc5k0PS24h02uIffgmt7-27" value="2" style="rounded=0;whiteSpace=wrap;html=1;" vertex="1" parent="1">
          <mxGeometry x="380" y="204" width="30" height="30" as="geometry" />
        </mxCell>
        <mxCell id="cc5k0PS24h02uIffgmt7-28" value="Transport" style="rounded=0;whiteSpace=wrap;html=1;" vertex="1" parent="1">
          <mxGeometry x="380" y="164" width="170" height="30" as="geometry" />
        </mxCell>
        <mxCell id="cc5k0PS24h02uIffgmt7-29" value="3" style="rounded=0;whiteSpace=wrap;html=1;" vertex="1" parent="1">
          <mxGeometry x="380" y="164" width="30" height="30" as="geometry" />
        </mxCell>
        <mxCell id="cc5k0PS24h02uIffgmt7-30" value="Application" style="rounded=0;whiteSpace=wrap;html=1;" vertex="1" parent="1">
          <mxGeometry x="380" y="44" width="170" height="110" as="geometry" />
        </mxCell>
        <mxCell id="cc5k0PS24h02uIffgmt7-31" value="4" style="rounded=0;whiteSpace=wrap;html=1;" vertex="1" parent="1">
          <mxGeometry x="380" y="44" width="30" height="110" as="geometry" />
        </mxCell>
        <mxCell id="cc5k0PS24h02uIffgmt7-32" value="Modèle Internet" style="text;strokeColor=none;align=center;fillColor=none;html=1;verticalAlign=middle;whiteSpace=wrap;rounded=0;" vertex="1" parent="1">
          <mxGeometry x="417.5" y="7" width="95" height="30" as="geometry" />
        </mxCell>
      </root>
    </mxGraphModel>
  </diagram>
</mxfile>
